<svg width="19" height="19" viewBox="0 0 19 19" fill="none" xmlns="http://www.w3.org/2000/svg">
<path d="M18.7332 16.6526C18.7332 16.6527 18.7332 16.6527 18.7331 16.6527L13.837 11.7986C13.2549 11.2216 13.1892 10.3188 13.4998 9.56034C13.8355 8.74088 14.0112 7.85664 14.0112 6.9454C14.0112 5.0902 13.2826 3.34617 11.9593 2.03414C10.6362 0.72235 8.87699 0 7.00571 0C5.1344 0 3.37523 0.72235 2.05181 2.03428C0.728488 3.3462 0 5.0903 0 6.9452C0 8.8001 0.728622 10.5444 2.05194 11.8565C3.37526 13.1684 5.13423 13.8906 7.00585 13.8906C7.86444 13.8906 8.6993 13.7384 9.47931 13.447C10.3733 13.113 11.4235 13.1808 12.1013 13.8526L16.8295 18.5399C17.0284 18.7373 17.3943 18.6945 17.6464 18.4443L18.6367 17.4624C18.889 17.2126 18.9322 16.8499 18.7332 16.6526C18.7332 16.6526 18.7332 16.6526 18.7332 16.6526ZM7.00595 12.0096C4.18935 12.0096 1.89815 9.73808 1.89815 6.94573C1.89815 4.15352 4.18962 1.88191 7.00595 1.88191C9.82241 1.88191 12.1137 4.15365 12.1137 6.94573C12.1137 9.73808 9.82254 12.0096 7.00595 12.0096Z" fill="#D4DCE2"/>
</svg>
